<?xml version="1.0" encoding="utf-8"?>
<svg version="1.1" id="logo" xmlns="http://www.w3.org/2000/svg" xmlns:xlink="http://www.w3.org/1999/xlink" x="0px" y="0px"
	 viewBox="0 0 48 48" style="enable-background:new 0 0 48 48;" xml:space="preserve">
<style type="text/css">
	.st0{fill:#FFFFFF;}
	.st1{fill:#0E207F;}
</style>
<rect x="7.1" y="1" class="st0" width="33.7" height="46"/>
<rect x="29" y="6.3" class="st1" width="5.8" height="6.5"/>
<path class="st1" d="M6.1,0v48h35.7V0H6.1z M24.2,15.9h-4.1l-4-6.5l-3.9,6.5H8l6.4-10.5V2.7h3.3v2.7L24.2,15.9L24.2,15.9z M21,21.6
	v2.9h-3.2v5.3h-3.2V17.2h3.2v4.4C17.8,21.6,21,21.6,21,21.6z M16.1,31.2c3.1,0,4.9,2,4.9,2c2.1,2.2,2,4.8,2,4.8c0,3-2,4.9-2,4.9
	c-2.1,2.1-4.9,2-4.9,2c-3.1,0-4.9-2-4.9-2c-2.2-2.2-2-4.9-2-4.9c0-3.1,2-4.8,2-4.8C13.5,31,16.1,31.2,16.1,31.2L16.1,31.2z
	 M27.1,27.1v-2.9h3.2v-1.6h-3.2v-2.9h3.2v-2.5h3.2v12.6h-3.2v-2.7L27.1,27.1L27.1,27.1z M25.8,15.7V3.3h12.3v12.4L25.8,15.7
	L25.8,15.7z M27,33.3c2.2-2.2,4.9-2,4.9-2c3.1,0,4.9,2,4.9,2c2.2,2.2,2,4.8,2,4.8c0,3-2,4.9-2,4.9c-2.1,2.1-4.9,2-4.9,2
	c-3.1,0-4.9-2-4.9-2c-2.2-2.2-2-4.9-2-4.9C25,35,27,33.3,27,33.3L27,33.3z"/>
<path class="st1" d="M31.9,41.7c0,0,1.4,0.1,2.5-1c0,0,1-1,1-2.5c0,0,0-1.5-1-2.5c0,0-0.9-1.1-2.5-1.1c0,0-1.4-0.2-2.5,1.1
	c0,0-1,0.9-1,2.5c0,0-0.1,1.4,1,2.6C29.3,40.7,30.3,41.7,31.9,41.7L31.9,41.7z"/>
<path class="st1" d="M16.1,41.7c0,0,1.4,0.1,2.5-1c0,0,1-1,1-2.5c0,0,0-1.5-1-2.5c0,0-0.9-1.1-2.5-1.1c0,0-1.4-0.2-2.5,1.1
	c0,0-1.1,0.9-1.1,2.5c0,0-0.1,1.4,1.1,2.6C13.6,40.7,14.5,41.7,16.1,41.7L16.1,41.7z"/>
</svg>
