<?xml version="1.0" encoding="UTF-8"?>
<svg id="logo-w-vert" xmlns="http://www.w3.org/2000/svg" viewBox="0 0 48 48" style="overflow: visible">
  <defs>
    <style>
      .symbol {
        fill: #fff;
      }
      .type {
        fill: #fff;
      }
    </style>
  </defs>
  <g>
    <path class="symbol" d="m11.29,0v34.16h25.41V0H11.29Zm12.87,11.31h-2.95l-2.81-4.65-2.81,4.65h-2.95l4.57-7.47v-1.91h2.37v1.91l4.57,7.47Zm-2.31,4.05v2.09h-2.3v3.78h-2.3v-8.98h2.3v3.11h2.3Zm-3.45,6.88c2.23,0,3.47,1.43,3.47,1.43,1.53,1.53,1.43,3.45,1.43,3.45,0,2.14-1.44,3.47-1.44,3.47-1.51,1.51-3.47,1.43-3.47,1.43-2.2,0-3.45-1.43-3.45-1.43-1.58-1.58-1.43-3.47-1.43-3.47,0-2.22,1.43-3.45,1.43-3.45,1.59-1.59,3.45-1.44,3.45-1.44Zm7.77-2.92v-2.09h2.3v-1.14h-2.3v-2.09h2.3v-1.75h2.3v8.98h-2.3v-1.91h-2.3Zm-.91-8.13V2.36h8.76v8.83h-8.76Zm.9,12.48c1.59-1.59,3.46-1.44,3.46-1.44,2.23,0,3.47,1.43,3.47,1.43,1.53,1.53,1.43,3.45,1.43,3.45,0,2.14-1.44,3.47-1.44,3.47-1.51,1.51-3.47,1.43-3.47,1.43-2.2,0-3.45-1.43-3.45-1.43-1.58-1.58-1.43-3.47-1.43-3.47,0-2.22,1.43-3.45,1.43-3.45Z"/>
    <path class="symbol" d="m29.62,29.69s1.02.04,1.81-.75c0,0,.75-.69.75-1.82,0,0,.01-1.05-.75-1.8,0,0-.66-.75-1.82-.75,0,0-.97-.11-1.81.75,0,0-.75.66-.75,1.81,0,0-.07,1,.75,1.82,0,0,.66.74,1.81.74Z"/>
    <rect class="symbol" x="27.59" y="4.45" width="4.15" height="4.65"/>
    <path class="symbol" d="m18.4,29.69s1.02.04,1.82-.75c0,0,.75-.69.75-1.82,0,0,.01-1.05-.75-1.8,0,0-.65-.75-1.82-.75,0,0-.97-.11-1.81.75,0,0-.75.66-.75,1.81,0,0-.07,1,.75,1.82,0,0,.66.74,1.8.74Z"/>
  </g>
  <g>
    <polygon class="type" points="7.23 42.36 7.23 42.37 7.24 42.37 8.91 42.37 8.94 42.37 8.93 42.35 6.53 38.12 6.53 37.22 6.53 37.2 6.52 37.2 5.21 37.2 5.19 37.2 5.19 37.22 5.19 38.14 2.83 42.35 2.82 42.37 2.85 42.37 4.52 42.37 4.53 42.37 4.53 42.36 5.88 39.73 7.23 42.36"/>
    <polygon class="type" points="18.23 37.2 18.23 38.2 16.92 38.2 16.92 39.41 18.23 39.41 18.23 40.03 16.93 40.03 16.92 40.03 16.92 40.05 16.92 41.23 16.92 41.25 16.93 41.25 18.23 41.25 18.23 42.39 19.57 42.39 19.57 37.2 18.23 37.2"/>
    <polygon class="type" points="10.37 38.99 10.37 37.23 10.37 37.22 10.36 37.22 9.05 37.22 9.03 37.22 9.03 37.23 9.03 42.35 9.03 42.37 9.05 42.37 10.36 42.37 10.37 42.37 10.37 42.35 10.37 40.2 11.66 40.2 11.68 40.2 11.68 40.19 11.68 39 11.68 38.99 11.66 38.99 10.37 38.99"/>
    <polygon class="type" points="36.53 38.97 36.53 37.22 36.53 37.2 36.52 37.2 35.21 37.2 35.19 37.2 35.19 37.22 35.19 42.34 35.19 42.36 35.21 42.36 36.52 42.36 36.53 42.36 36.53 42.34 36.53 40.19 37.83 40.19 37.84 40.19 37.84 40.17 37.84 38.98 37.84 38.97 37.83 38.97 36.53 38.97"/>
    <polygon class="type" points="27.02 37.2 27.01 37.2 27.01 37.21 27.01 39.12 26.08 39.12 26.08 37.21 26.08 37.19 26.06 37.19 24.76 37.19 24.74 37.19 24.74 37.21 24.74 48.11 24.74 48.12 24.76 48.12 26.06 48.12 26.08 48.12 26.08 48.11 26.08 40.35 27.01 40.35 27.01 48.11 27.01 48.12 27.02 48.12 28.33 48.12 28.34 48.12 28.34 48.11 28.34 37.21 28.34 37.2 28.33 37.2 27.02 37.2"/>
    <polygon class="type" points="20.92 37.35 20.9 37.35 20.9 37.37 20.9 42.3 20.9 42.32 20.92 42.32 24.37 42.32 24.38 42.32 24.38 42.3 24.38 41.13 24.38 41.12 24.37 41.12 22.27 41.12 22.27 38.57 24.38 38.57 24.39 38.57 24.39 38.55 24.39 37.37 24.39 37.35 24.38 37.35 20.92 37.35"/>
    <polygon class="type" points="36.51 43.2 35.21 43.2 30.35 43.2 30.33 43.2 30.33 43.21 30.33 44.39 30.33 44.4 30.35 44.4 35.19 44.4 35.19 48.1 35.19 48.12 35.21 48.12 36.52 48.12 36.53 48.12 36.53 48.1 36.53 43.21 36.53 43.2 36.52 43.2 36.51 43.2"/>
    <path class="type" d="m16.56,42.33h0v-4.98h-4.34v4.96h0s.01.01.01.01h4.33Zm-1.32-3.76v2.55h-1.66v-2.55h1.66Z"/>
    <path class="type" d="m10.39,45.54c0-.76-.27-1.43-.8-1.97-.53-.55-1.19-.82-1.96-.82s-1.41.28-1.94.82c-.53.54-.8,1.21-.8,1.98s.27,1.44.8,1.99c.53.55,1.18.83,1.94.83s1.43-.28,1.97-.83c.54-.55.81-1.22.81-1.99h0s-.02-.01-.02-.01h0Zm-2.74,1.43c-.38,0-.72-.14-.98-.42-.27-.28-.4-.61-.4-1,.01-.39.15-.73.42-1.01.27-.27.6-.41.98-.41s.71.14.97.43c.26.28.39.62.4,1,0,.39-.14.73-.4,1-.26.27-.6.41-.99.41Z"/>
    <path class="type" d="m19.57,45.54c0-.76-.27-1.43-.8-1.97-.53-.55-1.19-.82-1.96-.82s-1.41.28-1.94.82c-.53.54-.8,1.21-.8,1.98s.27,1.44.8,1.99c.53.55,1.18.83,1.94.83s1.43-.28,1.97-.83c.53-.55.81-1.22.81-1.99v-.02h-.02Zm-2.74,1.43c-.38,0-.71-.14-.98-.42-.27-.28-.4-.61-.4-1,0-.39.15-.73.42-1.01.27-.27.6-.41.98-.41s.71.14.98.43c.26.28.39.62.4,1,0,.39-.13.73-.4,1-.26.27-.6.41-.99.41Z"/>
    <path class="type" d="m32.14,42.32c1.22,0,2.21-.99,2.21-2.21,0-.39-.1-.77-.3-1.11h.76v-1.23h-2.03v-.86h-1.33v.86h-1.99v1.23h.77c-.19.34-.3.72-.3,1.11,0,1.22.99,2.21,2.21,2.21Zm0-1.27c-.52,0-.95-.42-.95-.95s.42-.95.95-.95.95.42.95.95-.42.95-.95.95Z"/>
    <polygon class="type" points="43.19 42.34 43.19 42.35 43.21 42.35 44.52 42.35 44.53 42.35 44.53 42.34 44.53 37.49 44.53 37.47 44.52 37.47 44.51 37.47 38.15 37.47 38.14 37.47 38.14 37.49 38.14 38.67 38.14 38.68 38.15 38.68 43.19 38.68 43.19 42.34"/>
    <polygon class="type" points="45.08 46.79 42.63 46.79 42.63 42.38 42.63 42.37 42.61 42.37 41.3 42.37 41.29 42.37 41.29 42.38 41.29 46.79 40.66 46.79 40.66 42.38 40.66 42.37 40.65 42.37 39.34 42.37 39.32 42.37 39.32 42.38 39.32 46.79 38.27 46.79 38.26 46.79 38.26 46.81 38.26 47.98 38.26 48 38.27 48 45.08 48 45.09 48 45.09 47.98 45.09 46.81 45.09 46.79 45.08 46.79"/>
  </g>
</svg>