<?xml version="1.0" encoding="UTF-8"?>
<svg id="logo-w-hori" xmlns="http://www.w3.org/2000/svg" viewBox="0 0 167.62 48" style="overflow: visible">
  <defs>
    <style>
      .symbol {
        fill: #fff;
      }
      .type {
        fill: #fff;
      }
    </style>
  </defs>
  <g>
    <path class="symbol" d="m0,0v48h35.71V0H0Zm18.09,15.89h-4.14l-3.95-6.53-3.95,6.53H1.91l6.42-10.5v-2.68h3.32v2.68l6.43,10.5Zm-3.24,5.7v2.93h-3.24v5.32h-3.24v-12.62h3.24v4.37h3.24Zm-4.85,9.67c3.14,0,4.88,2.01,4.88,2.01,2.15,2.15,2.01,4.85,2.01,4.85,0,3.01-2.02,4.87-2.02,4.87-2.13,2.13-4.87,2.01-4.87,2.01-3.09,0-4.85-2.01-4.85-2.01-2.21-2.21-2.02-4.87-2.02-4.87,0-3.12,2.01-4.85,2.01-4.85,2.23-2.23,4.85-2.02,4.85-2.02Zm10.92-4.1v-2.93h3.24v-1.6h-3.24v-2.93h3.24v-2.46h3.24v12.62h-3.24v-2.69h-3.24Zm-1.28-11.42V3.32h12.3v12.4h-12.3Zm1.26,17.54c2.23-2.23,4.85-2.02,4.85-2.02,3.14,0,4.88,2.01,4.88,2.01,2.15,2.15,2.01,4.85,2.01,4.85,0,3.01-2.02,4.87-2.02,4.87-2.13,2.13-4.87,2.01-4.87,2.01-3.09,0-4.85-2.01-4.85-2.01-2.21-2.21-2.02-4.87-2.02-4.87,0-3.12,2.01-4.85,2.01-4.85Z"/>
    <path class="symbol" d="m25.74,41.72s1.44.06,2.55-1.05c0,0,1.05-.97,1.05-2.55,0,0,.02-1.47-1.05-2.53,0,0-.92-1.06-2.55-1.06,0,0-1.36-.16-2.54,1.06,0,0-1.05.93-1.05,2.54,0,0-.1,1.4,1.06,2.56,0,0,.93,1.04,2.54,1.04Z"/>
    <rect class="symbol" x="22.9" y="6.26" width="5.83" height="6.53"/>
    <path class="symbol" d="m9.99,41.72s1.44.06,2.55-1.05c0,0,1.05-.97,1.05-2.55,0,0,.02-1.47-1.05-2.53,0,0-.92-1.06-2.55-1.06,0,0-1.36-.16-2.54,1.06,0,0-1.05.93-1.05,2.54,0,0-.1,1.4,1.06,2.56,0,0,.93,1.04,2.54,1.04Z"/>
  </g>
  <g>
    <polygon class="type" points="58.89 23.11 58.9 23.13 58.93 23.13 63.74 23.13 63.81 23.13 63.78 23.06 56.89 10.93 56.9 8.33 56.9 8.29 56.86 8.29 53.1 8.29 53.06 8.29 53.06 8.33 53.06 10.98 46.28 23.06 46.25 23.13 46.32 23.13 51.13 23.13 51.16 23.13 51.17 23.11 55.03 15.53 58.89 23.11"/>
    <polygon class="type" points="90.48 8.29 90.48 11.15 86.72 11.15 86.72 14.64 90.48 14.64 90.48 16.41 86.77 16.41 86.72 16.41 86.72 16.46 86.72 19.86 86.72 19.9 86.77 19.9 90.48 19.9 90.48 23.17 94.33 23.17 94.33 8.29 90.48 8.29"/>
    <polygon class="type" points="67.92 13.41 67.92 8.38 67.92 8.34 67.88 8.34 64.12 8.34 64.08 8.34 64.08 8.38 64.08 23.07 64.08 23.11 64.12 23.11 67.88 23.11 67.92 23.11 67.92 23.07 67.92 16.9 71.64 16.9 71.68 16.9 71.68 16.86 71.68 13.45 71.68 13.41 71.64 13.41 67.92 13.41"/>
    <polygon class="type" points="143.04 13.36 143.04 8.34 143.04 8.29 143 8.29 139.24 8.29 139.19 8.29 139.19 8.34 139.19 23.05 139.19 23.09 139.24 23.09 143 23.09 143.04 23.09 143.04 23.05 143.04 16.85 146.76 16.85 146.8 16.85 146.8 16.81 146.8 13.4 146.8 13.36 146.76 13.36 143.04 13.36"/>
    <polygon class="type" points="115.74 8.27 115.69 8.27 115.69 8.31 115.69 13.79 113.02 13.79 113.02 8.31 113.02 8.27 112.98 8.27 109.23 8.27 109.19 8.27 109.19 8.31 109.19 39.59 109.19 39.64 109.23 39.64 112.98 39.64 113.02 39.64 113.02 39.59 113.02 17.32 115.69 17.32 115.69 39.6 115.69 39.64 115.74 39.64 119.48 39.64 119.53 39.64 119.53 39.6 119.53 8.31 119.53 8.27 119.48 8.27 115.74 8.27"/>
    <polygon class="type" points="98.2 8.72 98.16 8.72 98.16 8.76 98.16 22.93 98.16 22.97 98.2 22.97 108.11 22.97 108.15 22.97 108.15 22.93 108.15 19.57 108.15 19.53 108.11 19.53 102.09 19.53 102.09 12.21 108.14 12.21 108.19 12.21 108.19 12.17 108.19 8.76 108.19 8.72 108.14 8.72 98.2 8.72"/>
    <polygon class="type" points="142.98 25.5 139.24 25.5 125.28 25.5 125.24 25.5 125.24 25.54 125.24 28.92 125.24 28.97 125.28 28.97 139.2 28.97 139.2 39.58 139.2 39.63 139.24 39.63 143.01 39.63 143.05 39.63 143.05 39.58 143.05 25.54 143.05 25.5 143.01 25.5 142.98 25.5"/>
    <path class="type" d="m85.69,23v-14.29h-12.46v14.29h12.46Zm-3.8-10.8v7.31h-4.78v-7.31h4.78Z"/>
    <path class="type" d="m67.99,32.24c0-2.19-.78-4.09-2.29-5.65-1.52-1.56-3.41-2.36-5.63-2.36s-4.06.79-5.58,2.36c-1.52,1.56-2.29,3.48-2.29,5.69s.77,4.14,2.29,5.71c1.52,1.58,3.4,2.38,5.58,2.38s4.11-.8,5.65-2.38c1.53-1.58,2.31-3.5,2.31-5.71v-.04h-.05Zm-7.87,4.11c-1.1,0-2.05-.4-2.82-1.2-.77-.8-1.16-1.76-1.16-2.87.03-1.13.43-2.1,1.2-2.89.77-.78,1.72-1.18,2.82-1.18s2.04.41,2.8,1.22c.75.81,1.13,1.77,1.14,2.87,0,1.12-.39,2.09-1.14,2.87-.75.78-1.71,1.18-2.84,1.18Z"/>
    <path class="type" d="m94.33,32.23c-.01-2.19-.78-4.09-2.29-5.65-1.52-1.56-3.41-2.36-5.63-2.36s-4.06.79-5.58,2.36c-1.52,1.56-2.29,3.48-2.29,5.69s.77,4.14,2.29,5.71c1.52,1.58,3.4,2.38,5.58,2.38s4.11-.8,5.65-2.38c1.53-1.58,2.31-3.5,2.31-5.71v-.04h-.05Zm-7.87,4.11c-1.1,0-2.05-.4-2.82-1.2-.77-.8-1.16-1.76-1.16-2.87.03-1.13.43-2.1,1.2-2.89.77-.78,1.72-1.18,2.82-1.18s2.04.41,2.8,1.22c.75.81,1.13,1.77,1.14,2.87,0,1.12-.39,2.09-1.14,2.87-.75.78-1.71,1.18-2.84,1.18Z"/>
    <path class="type" d="m130.43,22.99c3.5,0,6.35-2.85,6.35-6.35,0-1.12-.3-2.21-.85-3.17h2.17v-3.53h-5.82v-2.48h-3.83v2.48h-5.72v3.53h2.21c-.56.96-.85,2.06-.85,3.17,0,3.5,2.85,6.35,6.35,6.35Zm0-3.63c-1.5,0-2.72-1.22-2.72-2.72s1.22-2.72,2.72-2.72,2.72,1.22,2.72,2.72-1.22,2.72-2.72,2.72Z"/>
    <polygon class="type" points="162.16 23.03 162.16 23.08 162.21 23.08 165.97 23.08 166.02 23.08 166.02 23.03 166.02 9.11 166.02 9.07 165.97 9.07 165.95 9.07 147.7 9.07 147.65 9.07 147.65 9.11 147.65 12.5 147.65 12.54 147.7 12.54 162.16 12.54 162.16 23.03"/>
    <polygon class="type" points="167.58 35.82 160.55 35.82 160.55 23.17 160.55 23.12 160.51 23.12 156.74 23.12 156.7 23.12 156.7 23.17 156.7 35.82 154.9 35.82 154.9 23.17 154.9 23.12 154.86 23.12 151.09 23.12 151.05 23.12 151.05 23.17 151.05 35.82 148.04 35.82 147.99 35.82 147.99 35.86 147.99 39.25 147.99 39.29 148.04 39.29 167.58 39.29 167.62 39.29 167.62 39.25 167.62 35.86 167.62 35.82 167.58 35.82"/>
  </g>
</svg>