<?xml version="1.0" encoding="UTF-8"?>
<svg id="Layer_1" data-name="Layer 1" xmlns="http://www.w3.org/2000/svg" viewBox="0 0 48 48">
  <defs>
    <style>
      .symbol-bg {
        fill: #fff;
      }

      .symbol {
        fill: #0e207f;
      }
    </style>
  </defs>
  <rect class="symbol-bg" x="6.14" width="35.71" height="48"/>
  <g>
    <path class="symbol" d="m6.14,0v48h35.71V0H6.14Zm18.09,15.89h-4.14l-3.95-6.53-3.95,6.53h-4.14l6.42-10.5v-2.68h3.32v2.68l6.43,10.5Zm-3.24,5.69v2.93h-3.24v5.32h-3.24v-12.62h3.24v4.37h3.24Zm-4.85,9.67c3.14,0,4.88,2.01,4.88,2.01,2.15,2.15,2.01,4.85,2.01,4.85,0,3.01-2.02,4.87-2.02,4.87-2.13,2.13-4.87,2.01-4.87,2.01-3.09,0-4.85-2.01-4.85-2.01-2.21-2.22-2.02-4.87-2.02-4.87,0-3.12,2.01-4.85,2.01-4.85,2.23-2.23,4.85-2.02,4.85-2.02Zm10.92-4.1v-2.93h3.24v-1.6h-3.24v-2.93h3.24v-2.46h3.24v12.62h-3.24v-2.69h-3.24Zm-1.28-11.42V3.32h12.3v12.4h-12.3Zm1.26,17.54c2.24-2.23,4.86-2.02,4.86-2.02,3.14,0,4.87,2.01,4.87,2.01,2.15,2.15,2.01,4.85,2.01,4.85,0,3.01-2.02,4.87-2.02,4.87-2.13,2.13-4.87,2.01-4.87,2.01-3.09,0-4.85-2.01-4.85-2.01-2.21-2.22-2.01-4.87-2.01-4.87,0-3.12,2.01-4.85,2.01-4.85Z"/>
    <path class="symbol" d="m31.89,41.72s1.44.06,2.55-1.05c0,0,1.05-.97,1.05-2.55,0,0,.01-1.47-1.05-2.53,0,0-.92-1.06-2.55-1.06,0,0-1.36-.16-2.54,1.06,0,0-1.05.93-1.05,2.54,0,0-.1,1.4,1.05,2.56,0,0,.93,1.04,2.54,1.04Z"/>
    <rect class="symbol" x="29.05" y="6.26" width="5.83" height="6.53"/>
    <path class="symbol" d="m16.13,41.72s1.44.06,2.55-1.05c0,0,1.05-.97,1.05-2.55,0,0,.01-1.47-1.05-2.53,0,0-.92-1.06-2.55-1.06,0,0-1.36-.16-2.54,1.06,0,0-1.05.93-1.05,2.54,0,0-.1,1.4,1.06,2.56,0,0,.93,1.04,2.54,1.04Z"/>
  </g>
</svg>